<mxfile host="app.diagrams.net" modified="2024-05-24T04:53:25.572Z" agent="Mozilla/5.0 (Windows NT 10.0; Win64; x64) AppleWebKit/537.36 (KHTML, like Gecko) Chrome/125.0.0.0 Safari/537.36 Edg/125.0.0.0" etag="MBLwHkxKuUx26YljPeL0" version="24.4.4" type="device">
  <diagram name="Page-1" id="fZQQdVqstnFXQa2sazni">
    <mxGraphModel dx="1426" dy="785" grid="1" gridSize="10" guides="1" tooltips="1" connect="1" arrows="1" fold="1" page="1" pageScale="1" pageWidth="850" pageHeight="1100" math="0" shadow="0">
      <root>
        <mxCell id="0" />
        <mxCell id="1" parent="0" />
        <mxCell id="JPCS9GuVshd0Gr2abagE-15" style="edgeStyle=orthogonalEdgeStyle;rounded=0;orthogonalLoop=1;jettySize=auto;html=1;entryX=0;entryY=0.5;entryDx=0;entryDy=0;fontStyle=1;fontSize=14;" parent="1" source="JPCS9GuVshd0Gr2abagE-1" target="JPCS9GuVshd0Gr2abagE-6" edge="1">
          <mxGeometry relative="1" as="geometry">
            <Array as="points">
              <mxPoint x="120" y="360" />
              <mxPoint x="120" y="80" />
            </Array>
          </mxGeometry>
        </mxCell>
        <mxCell id="JPCS9GuVshd0Gr2abagE-27" style="edgeStyle=orthogonalEdgeStyle;rounded=0;orthogonalLoop=1;jettySize=auto;html=1;entryX=0;entryY=0.5;entryDx=0;entryDy=0;" parent="1" source="JPCS9GuVshd0Gr2abagE-1" target="JPCS9GuVshd0Gr2abagE-6" edge="1">
          <mxGeometry relative="1" as="geometry">
            <Array as="points">
              <mxPoint x="360" y="470" />
              <mxPoint x="120" y="470" />
              <mxPoint x="120" y="80" />
            </Array>
          </mxGeometry>
        </mxCell>
        <mxCell id="JPCS9GuVshd0Gr2abagE-1" value="RUNNING&lt;div&gt;&lt;font style=&quot;font-size: 11px;&quot;&gt;TURNON_SCENE&lt;/font&gt;&lt;br&gt;&lt;/div&gt;" style="rounded=1;whiteSpace=wrap;html=1;glass=0;fontStyle=1;fontSize=14;" parent="1" vertex="1">
          <mxGeometry x="290" y="330" width="140" height="60" as="geometry" />
        </mxCell>
        <mxCell id="JPCS9GuVshd0Gr2abagE-10" style="edgeStyle=orthogonalEdgeStyle;rounded=0;orthogonalLoop=1;jettySize=auto;html=1;exitX=0.5;exitY=1;exitDx=0;exitDy=0;entryX=0.5;entryY=0;entryDx=0;entryDy=0;fontStyle=1;fontSize=14;" parent="1" source="JPCS9GuVshd0Gr2abagE-6" target="JPCS9GuVshd0Gr2abagE-1" edge="1">
          <mxGeometry relative="1" as="geometry" />
        </mxCell>
        <mxCell id="JPCS9GuVshd0Gr2abagE-12" style="edgeStyle=orthogonalEdgeStyle;rounded=0;orthogonalLoop=1;jettySize=auto;html=1;entryX=0;entryY=0.5;entryDx=0;entryDy=0;fontStyle=1;fontSize=14;" parent="1" source="JPCS9GuVshd0Gr2abagE-6" target="JPCS9GuVshd0Gr2abagE-9" edge="1">
          <mxGeometry relative="1" as="geometry" />
        </mxCell>
        <mxCell id="JPCS9GuVshd0Gr2abagE-6" value="STOPPED&lt;div&gt;&lt;font style=&quot;font-size: 11px;&quot;&gt;FRONT_SCREEN&lt;/font&gt;&lt;br&gt;&lt;/div&gt;" style="rounded=1;whiteSpace=wrap;html=1;fontStyle=1;fontSize=14;" parent="1" vertex="1">
          <mxGeometry x="290" y="50" width="140" height="60" as="geometry" />
        </mxCell>
        <mxCell id="JPCS9GuVshd0Gr2abagE-14" style="edgeStyle=orthogonalEdgeStyle;rounded=0;orthogonalLoop=1;jettySize=auto;html=1;entryX=1;entryY=0.5;entryDx=0;entryDy=0;fontStyle=1;fontSize=14;" parent="1" source="JPCS9GuVshd0Gr2abagE-8" target="JPCS9GuVshd0Gr2abagE-1" edge="1">
          <mxGeometry relative="1" as="geometry" />
        </mxCell>
        <mxCell id="JPCS9GuVshd0Gr2abagE-17" style="edgeStyle=orthogonalEdgeStyle;rounded=0;orthogonalLoop=1;jettySize=auto;html=1;entryX=0;entryY=0.5;entryDx=0;entryDy=0;fontStyle=1;fontSize=14;" parent="1" source="JPCS9GuVshd0Gr2abagE-8" target="JPCS9GuVshd0Gr2abagE-6" edge="1">
          <mxGeometry relative="1" as="geometry">
            <Array as="points">
              <mxPoint x="700" y="470" />
              <mxPoint x="120" y="470" />
              <mxPoint x="120" y="80" />
            </Array>
          </mxGeometry>
        </mxCell>
        <mxCell id="JPCS9GuVshd0Gr2abagE-8" value="WAITING&lt;div&gt;&lt;font style=&quot;font-size: 11px;&quot;&gt;WAITING_SCENE&lt;/font&gt;&lt;br&gt;&lt;/div&gt;" style="rounded=1;whiteSpace=wrap;html=1;glass=0;fontStyle=1;fontSize=14;" parent="1" vertex="1">
          <mxGeometry x="630" y="330" width="140" height="60" as="geometry" />
        </mxCell>
        <mxCell id="JPCS9GuVshd0Gr2abagE-13" style="edgeStyle=orthogonalEdgeStyle;rounded=0;orthogonalLoop=1;jettySize=auto;html=1;entryX=0.5;entryY=0;entryDx=0;entryDy=0;fontStyle=1;fontSize=14;" parent="1" source="JPCS9GuVshd0Gr2abagE-9" target="JPCS9GuVshd0Gr2abagE-8" edge="1">
          <mxGeometry relative="1" as="geometry" />
        </mxCell>
        <mxCell id="JPCS9GuVshd0Gr2abagE-9" value="CONFIGURATION&lt;div&gt;&lt;font style=&quot;font-size: 11px;&quot;&gt;TIMER_CONFIG_SCENE&lt;/font&gt;&lt;br&gt;&lt;/div&gt;" style="rounded=1;whiteSpace=wrap;html=1;glass=0;fontStyle=1;fontSize=14;" parent="1" vertex="1">
          <mxGeometry x="630" y="50" width="140" height="60" as="geometry" />
        </mxCell>
        <mxCell id="JPCS9GuVshd0Gr2abagE-19" value="set up timer" style="rhombus;whiteSpace=wrap;html=1;" parent="1" vertex="1">
          <mxGeometry x="460" y="40" width="150" height="80" as="geometry" />
        </mxCell>
        <mxCell id="JPCS9GuVshd0Gr2abagE-21" value="start waiting timer" style="rhombus;whiteSpace=wrap;html=1;" parent="1" vertex="1">
          <mxGeometry x="625" y="180" width="150" height="80" as="geometry" />
        </mxCell>
        <mxCell id="JPCS9GuVshd0Gr2abagE-22" value="timer waiting&lt;div&gt;interrupt&lt;/div&gt;" style="rhombus;whiteSpace=wrap;html=1;" parent="1" vertex="1">
          <mxGeometry x="460" y="320" width="150" height="80" as="geometry" />
        </mxCell>
        <mxCell id="JPCS9GuVshd0Gr2abagE-23" value="manually start" style="rhombus;whiteSpace=wrap;html=1;" parent="1" vertex="1">
          <mxGeometry x="285" y="170" width="150" height="80" as="geometry" />
        </mxCell>
        <mxCell id="JPCS9GuVshd0Gr2abagE-25" value="timer running&lt;div&gt;interrupt&lt;/div&gt;" style="rhombus;whiteSpace=wrap;html=1;" parent="1" vertex="1">
          <mxGeometry x="130" y="320" width="150" height="80" as="geometry" />
        </mxCell>
        <mxCell id="JPCS9GuVshd0Gr2abagE-26" value="manually stop" style="rhombus;whiteSpace=wrap;html=1;" parent="1" vertex="1">
          <mxGeometry x="130" y="430" width="150" height="80" as="geometry" />
        </mxCell>
        <mxCell id="LfenQmNB5u1Wb_rZF03j-1" value="MANUALLY START" style="text;html=1;align=left;verticalAlign=middle;whiteSpace=wrap;rounded=0;" vertex="1" parent="1">
          <mxGeometry x="370" y="110" width="90" height="50" as="geometry" />
        </mxCell>
        <mxCell id="LfenQmNB5u1Wb_rZF03j-2" value="SETUP TIMER" style="text;html=1;align=left;verticalAlign=middle;whiteSpace=wrap;rounded=0;" vertex="1" parent="1">
          <mxGeometry x="400" y="10" width="90" height="50" as="geometry" />
        </mxCell>
        <mxCell id="LfenQmNB5u1Wb_rZF03j-3" value="MANUALLY STOP" style="text;html=1;align=left;verticalAlign=middle;whiteSpace=wrap;rounded=0;" vertex="1" parent="1">
          <mxGeometry x="370" y="400" width="90" height="50" as="geometry" />
        </mxCell>
        <mxCell id="LfenQmNB5u1Wb_rZF03j-4" value="START TIMER" style="text;html=1;align=left;verticalAlign=middle;whiteSpace=wrap;rounded=0;" vertex="1" parent="1">
          <mxGeometry x="710" y="120" width="90" height="50" as="geometry" />
        </mxCell>
        <mxCell id="LfenQmNB5u1Wb_rZF03j-5" value="STOP TIMER" style="text;html=1;align=left;verticalAlign=middle;whiteSpace=wrap;rounded=0;" vertex="1" parent="1">
          <mxGeometry x="710" y="400" width="90" height="50" as="geometry" />
        </mxCell>
        <mxCell id="LfenQmNB5u1Wb_rZF03j-6" value="MANUALLY START" style="text;html=1;align=right;verticalAlign=middle;whiteSpace=wrap;rounded=0;" vertex="1" parent="1">
          <mxGeometry x="540" y="300" width="90" height="50" as="geometry" />
        </mxCell>
      </root>
    </mxGraphModel>
  </diagram>
</mxfile>
